<svg width="150.701" height="47.2" viewBox="0 0 150.701 47.2" xmlns="http://www.w3.org/2000/svg"><g id="svgGroup" stroke-linecap="round" fill-rule="evenodd" font-size="9pt" stroke="#f7f2f2" stroke-width="0.50mm" fill="#f0e9e9" style="stroke:#f7f2f2;stroke-width:0.50mm;fill:#f0e9e9"><path d="M 47.4 46.2 L 48.4 42.45 A 4.954 4.954 0 0 0 48.983 42.737 Q 49.285 42.864 49.638 42.973 A 9.272 9.272 0 0 0 49.9 43.05 A 6.757 6.757 0 0 0 51.04 43.259 A 8.679 8.679 0 0 0 51.9 43.3 Q 54 43.3 55.65 41.95 Q 57.3 40.6 58.8 36.65 L 59.95 33.65 L 57.55 33.65 L 47.4 10.8 L 51.4 9 L 61.1 30.65 L 68.65 9.2 L 72.8 10.8 L 63.25 36.9 A 35.864 35.864 0 0 1 62.224 39.443 Q 61.673 40.663 61.089 41.657 A 15.43 15.43 0 0 1 60.1 43.15 A 12.134 12.134 0 0 1 58.661 44.755 Q 57.704 45.639 56.653 46.159 A 7.369 7.369 0 0 1 56.35 46.3 A 10.726 10.726 0 0 1 53.022 47.144 A 13.019 13.019 0 0 1 51.8 47.2 Q 50.3 47.2 49.175 46.9 A 10.163 10.163 0 0 1 48.458 46.682 Q 48.123 46.565 47.845 46.437 A 4.307 4.307 0 0 1 47.4 46.2 Z M 24.45 1.8 L 23 5.8 Q 21.45 5.05 19.825 4.6 Q 18.429 4.213 16.608 4.159 A 20.353 20.353 0 0 0 16 4.15 A 10.586 10.586 0 0 0 12.048 4.878 A 9.99 9.99 0 0 0 10.275 5.8 A 10.583 10.583 0 0 0 7.093 9.091 A 13.489 13.489 0 0 0 6.3 10.55 Q 4.964 13.408 4.859 17.371 A 25.797 25.797 0 0 0 4.85 18.05 Q 4.85 22.25 6.275 25.4 A 12.839 12.839 0 0 0 8.069 28.314 A 10.711 10.711 0 0 0 10.225 30.3 Q 12.75 32.05 16 32.05 A 16.858 16.858 0 0 0 17.986 31.939 Q 18.992 31.82 19.858 31.572 A 9.64 9.64 0 0 0 20.25 31.45 Q 22.05 30.85 23.75 29.9 L 25.2 33.85 A 18.781 18.781 0 0 1 22.953 34.872 A 23.947 23.947 0 0 1 20.975 35.525 A 16.796 16.796 0 0 1 18.493 36.021 Q 17.252 36.178 15.853 36.197 A 28.709 28.709 0 0 1 15.45 36.2 Q 10.9 36.2 7.4 34.025 A 14.3 14.3 0 0 1 2.462 28.802 A 17.458 17.458 0 0 1 1.95 27.825 Q 0 23.8 0 18.25 A 24.686 24.686 0 0 1 0.494 13.206 A 19.373 19.373 0 0 1 1.975 8.775 A 15.818 15.818 0 0 1 5.465 3.96 A 14.93 14.93 0 0 1 7.575 2.325 A 14.686 14.686 0 0 1 13.916 0.119 A 18.646 18.646 0 0 1 16.05 0 A 22.819 22.819 0 0 1 18.58 0.134 A 17.6 17.6 0 0 1 20.6 0.475 A 19.112 19.112 0 0 1 24.338 1.747 A 17.792 17.792 0 0 1 24.45 1.8 Z M 82.75 46.6 L 78.25 46.6 L 78.25 16.25 A 5.507 5.507 0 0 0 78.187 15.382 Q 78.115 14.934 77.962 14.582 A 2.102 2.102 0 0 0 77.425 13.825 A 2.859 2.859 0 0 0 76.03 13.164 A 3.995 3.995 0 0 0 75.3 13.1 L 76.25 9.6 Q 79.181 9.6 80.712 11.082 A 5.075 5.075 0 0 1 82 13.25 A 5.712 5.712 0 0 1 82.396 12.731 Q 82.838 12.209 83.526 11.589 A 19.279 19.279 0 0 1 83.625 11.5 Q 84.75 10.5 86.425 9.75 Q 88.1 9 90.25 9 Q 93.25 9 95.875 10.575 A 11.165 11.165 0 0 1 99.464 14.059 A 13.732 13.732 0 0 1 100.1 15.125 A 12.842 12.842 0 0 1 101.349 18.646 Q 101.667 20.197 101.697 21.979 A 22.136 22.136 0 0 1 101.7 22.35 A 18.285 18.285 0 0 1 101.349 26.015 A 14.053 14.053 0 0 1 100.1 29.625 A 13.923 13.923 0 0 1 98.133 32.541 A 11.515 11.515 0 0 1 95.925 34.475 Q 93.35 36.2 90.35 36.2 Q 88.05 36.2 86.05 35.275 A 15.176 15.176 0 0 1 84.342 34.356 Q 83.446 33.792 82.75 33.15 L 82.75 46.6 Z M 108.95 26.65 L 108.95 14.45 L 104.45 14.45 L 104.45 10.55 L 109.05 10.55 L 110 2.35 L 113.45 2.35 L 113.45 10.55 L 120.65 10.55 L 120.65 14.45 L 113.45 14.45 L 113.45 27 A 10.779 10.779 0 0 0 113.534 28.398 Q 113.771 30.201 114.675 31.05 Q 115.9 32.2 117.6 32.2 Q 118.85 32.2 119.975 31.8 A 12.866 12.866 0 0 0 121.564 31.116 A 11.384 11.384 0 0 0 122.05 30.85 L 123.3 34.45 A 9.273 9.273 0 0 1 122.491 34.878 Q 121.689 35.257 120.6 35.625 Q 118.9 36.2 117.05 36.2 A 9.163 9.163 0 0 1 114.459 35.852 A 6.967 6.967 0 0 1 111.125 33.725 Q 108.95 31.25 108.95 26.65 Z M 35.7 35.6 L 31.2 35.6 L 31.2 9.6 L 35.55 9.6 L 35.55 15.25 Q 36.2 13.6 37.3 12.175 Q 38.4 10.75 40.05 9.875 Q 41.7 9 43.9 9 Q 44.65 9 45.4 9.075 A 9.486 9.486 0 0 1 45.928 9.142 Q 46.178 9.181 46.391 9.231 A 4.408 4.408 0 0 1 46.65 9.3 L 45.3 13.95 A 4.881 4.881 0 0 0 44.228 13.644 Q 43.68 13.55 43.05 13.55 A 6.479 6.479 0 0 0 39.735 14.473 A 7.804 7.804 0 0 0 39.525 14.6 A 6.701 6.701 0 0 0 37.789 16.199 Q 37.238 16.911 36.79 17.821 A 11.373 11.373 0 0 0 36.775 17.85 Q 35.894 19.654 35.735 22.264 A 19.545 19.545 0 0 0 35.7 23.45 L 35.7 35.6 Z M 133.431 35.53 A 13.607 13.607 0 0 0 137.75 36.2 A 15.363 15.363 0 0 0 138.888 36.159 A 12.629 12.629 0 0 0 144.375 34.5 Q 147.3 32.8 149 29.725 A 13.128 13.128 0 0 0 150.327 26.154 A 17.092 17.092 0 0 0 150.7 22.5 A 17.271 17.271 0 0 0 150.458 19.546 A 12.897 12.897 0 0 0 148.975 15.325 Q 147.25 12.3 144.325 10.65 A 12.424 12.424 0 0 0 142.005 9.637 A 13.869 13.869 0 0 0 137.75 9 A 15.662 15.662 0 0 0 136.96 9.02 A 13.085 13.085 0 0 0 131.15 10.65 Q 128.2 12.3 126.5 15.35 A 13.011 13.011 0 0 0 125.126 19.145 A 17.503 17.503 0 0 0 124.8 22.6 A 17.41 17.41 0 0 0 124.933 24.777 A 13.725 13.725 0 0 0 126.475 29.675 Q 128.15 32.75 131.1 34.475 A 12.28 12.28 0 0 0 133.431 35.53 Z M 137.75 32.2 A 9.371 9.371 0 0 0 140.363 31.855 A 7 7 0 0 0 143.9 29.525 A 9.401 9.401 0 0 0 145.81 25.48 A 13.552 13.552 0 0 0 146.1 22.6 A 10.688 10.688 0 0 0 145.488 18.957 A 10.007 10.007 0 0 0 145 17.825 A 9.599 9.599 0 0 0 142.914 15.041 A 9.085 9.085 0 0 0 142.025 14.325 Q 140.15 13 137.75 13 A 9.624 9.624 0 0 0 135.137 13.336 A 7.018 7.018 0 0 0 131.6 15.6 A 8.939 8.939 0 0 0 129.763 19.287 Q 129.4 20.753 129.4 22.5 Q 129.4 25.1 130.5 27.325 A 9.719 9.719 0 0 0 132.265 29.845 A 8.814 8.814 0 0 0 133.475 30.875 Q 135.35 32.2 137.75 32.2 Z M 82.75 16.3 L 82.75 29.1 Q 84.05 30.45 85.75 31.325 Q 87.45 32.2 89.45 32.2 Q 92.797 32.2 94.909 29.608 A 8.69 8.69 0 0 0 94.975 29.525 A 9.396 9.396 0 0 0 96.722 25.872 Q 97.053 24.527 97.094 22.954 A 17.278 17.278 0 0 0 97.1 22.5 A 14.024 14.024 0 0 0 96.902 20.079 Q 96.638 18.576 96.025 17.35 Q 94.95 15.2 93.175 14.05 Q 91.4 12.9 89.25 12.9 A 7.371 7.371 0 0 0 86.437 13.432 A 7.027 7.027 0 0 0 85.375 13.975 Q 83.906 14.891 83.036 15.933 A 6.47 6.47 0 0 0 82.75 16.3 Z" vector-effect="non-scaling-stroke"/></g></svg>