<svg width="142.252" height="43.22" viewBox="0 0 142.252 43.22" xmlns="http://www.w3.org/2000/svg"><g id="svgGroup" stroke-linecap="round" fill-rule="evenodd" font-size="9pt" stroke="#3375bb" stroke-width="0.25mm" fill="#3375bb" style="stroke:#3375bb;stroke-width:0.25mm;fill:#3375bb"><path d="M 14.766 26.675 A 12.673 12.673 0 0 0 15.701 26.643 Q 16.655 26.572 17.282 26.345 A 5.485 5.485 0 0 0 17.907 26.077 Q 18.215 25.92 18.457 25.738 A 2.738 2.738 0 0 0 18.699 25.532 A 9.461 9.461 0 0 0 19.273 24.936 A 7.723 7.723 0 0 0 19.578 24.566 A 12.459 12.459 0 0 1 19.746 24.36 Q 19.987 24.071 20.16 23.906 A 1.046 1.046 0 0 1 20.428 23.724 Q 20.593 23.644 20.808 23.599 A 2.021 2.021 0 0 1 21.033 23.544 Q 21.267 23.5 21.607 23.475 A 10.595 10.595 0 0 1 21.94 23.456 Q 22.72 23.423 23.5 23.423 Q 24.253 23.423 24.566 23.464 A 1.891 1.891 0 0 1 24.588 23.467 A 2.325 2.325 0 0 1 24.801 23.486 Q 25.093 23.527 25.225 23.643 A 0.427 0.427 0 0 1 25.32 23.769 Q 25.388 23.901 25.423 24.121 A 2.611 2.611 0 0 1 25.445 24.302 A 15.331 15.331 0 0 1 25.486 24.866 Q 25.504 25.18 25.513 25.533 A 29.281 29.281 0 0 1 25.522 25.972 A 33.474 33.474 0 0 1 25.524 26.302 Q 25.525 26.958 25.498 27.48 A 14.812 14.812 0 0 1 25.489 27.642 A 2.08 2.08 0 0 1 25.465 27.809 Q 25.451 27.888 25.431 27.956 A 1.094 1.094 0 0 1 25.412 28.015 A 1.278 1.278 0 0 1 25.377 28.102 Q 25.334 28.199 25.26 28.335 A 7.112 7.112 0 0 1 25.181 28.477 Q 24.961 28.828 24.324 29.498 A 5.514 5.514 0 0 1 23.789 29.986 Q 23.491 30.226 23.121 30.472 A 13.175 13.175 0 0 1 22.456 30.883 A 9.354 9.354 0 0 1 21.339 31.428 Q 20.436 31.802 19.281 32.102 A 13.891 13.891 0 0 1 17.698 32.41 Q 16.808 32.534 15.782 32.58 A 28.427 28.427 0 0 1 14.502 32.608 A 20.849 20.849 0 0 1 10.52 32.239 A 18.131 18.131 0 0 1 8.833 31.828 A 11.5 11.5 0 0 1 4.208 29.202 A 10.662 10.662 0 0 1 2.249 26.715 A 14.776 14.776 0 0 1 1.11 24.214 Q 0.247 21.772 0.055 18.386 A 35.632 35.632 0 0 1 0 16.37 Q 0 11.722 1.432 8.316 A 14.742 14.742 0 0 1 1.813 7.482 A 13.238 13.238 0 0 1 4.806 3.472 A 12.464 12.464 0 0 1 6.966 1.912 A 14.254 14.254 0 0 1 11.75 0.247 A 19.032 19.032 0 0 1 14.876 0 Q 16.981 0 18.542 0.284 A 10.479 10.479 0 0 1 20.028 0.659 A 13.276 13.276 0 0 1 21.229 1.128 Q 21.805 1.388 22.264 1.677 A 5.583 5.583 0 0 1 22.984 2.208 A 13.394 13.394 0 0 1 23.551 2.736 Q 24.063 3.242 24.348 3.66 A 3.462 3.462 0 0 1 24.412 3.757 Q 24.566 3.999 24.632 4.186 A 1.024 1.024 0 0 1 24.665 4.307 Q 24.695 4.442 24.711 4.638 A 4.932 4.932 0 0 1 24.72 4.768 A 4.823 4.823 0 0 1 24.745 5.049 Q 24.77 5.431 24.761 5.983 A 21.769 21.769 0 0 1 24.752 6.306 A 16.36 16.36 0 0 1 24.705 7.144 Q 24.673 7.526 24.623 7.865 A 9.344 9.344 0 0 1 24.588 8.086 A 2.274 2.274 0 0 1 24.537 8.307 Q 24.474 8.526 24.378 8.647 A 0.452 0.452 0 0 1 24.302 8.723 A 0.385 0.385 0 0 1 24.234 8.776 Q 24.162 8.822 24.047 8.86 A 1.618 1.618 0 0 1 23.994 8.877 A 1.19 1.19 0 0 1 23.845 8.91 Q 23.689 8.936 23.467 8.941 A 5.197 5.197 0 0 1 23.335 8.943 Q 22.632 8.943 21.753 8.888 A 33.305 33.305 0 0 1 21.341 8.86 Q 20.764 8.817 20.435 8.767 A 3.737 3.737 0 0 1 20.161 8.712 Q 19.893 8.646 19.728 8.553 A 0.859 0.859 0 0 1 19.666 8.515 A 1.379 1.379 0 0 1 19.477 8.357 Q 19.39 8.271 19.302 8.161 A 3.004 3.004 0 0 1 19.182 7.998 A 3.555 3.555 0 0 0 18.879 7.624 Q 18.485 7.193 17.82 6.68 A 2.867 2.867 0 0 0 17.018 6.258 Q 16.236 5.981 15.06 5.94 A 12.118 12.118 0 0 0 14.634 5.933 A 6.56 6.56 0 0 0 11.55 6.652 A 6.801 6.801 0 0 0 9.492 8.339 A 7.154 7.154 0 0 0 8.28 10.507 Q 7.552 12.501 7.479 15.461 A 27.203 27.203 0 0 0 7.471 16.128 A 21.734 21.734 0 0 0 7.639 18.925 Q 8.067 22.219 9.591 24.082 A 7.619 7.619 0 0 0 11.389 25.711 A 6.161 6.161 0 0 0 14.766 26.675 Z M 46.121 15.202 Q 45.901 13.87 45.901 12.656 L 45.901 12.7 L 45.901 12.634 L 45.901 12.656 Q 45.901 13.87 46.121 15.202 A 21.418 21.418 0 0 0 46.681 17.644 Q 47.461 20.347 48.758 23.06 A 39.165 39.165 0 0 0 48.962 23.482 A 35.443 35.443 0 0 0 51.669 28.092 A 32.196 32.196 0 0 0 51.77 28.236 Q 53.336 30.458 54.954 31.948 A 21.128 21.128 0 0 1 54.818 32.176 Q 53.28 34.715 51.702 35.662 Q 50.054 36.651 48.538 36.651 A 7.721 7.721 0 0 1 48.396 36.649 Q 48.175 36.645 48.02 36.628 A 1.681 1.681 0 0 1 47.879 36.607 Q 47.721 36.575 47.62 36.566 A 0.815 0.815 0 0 0 47.549 36.563 Q 47.439 36.563 47.285 36.618 Q 47.175 36.657 47.019 36.77 A 2.846 2.846 0 0 0 46.89 36.87 Q 46.538 37.156 46.033 37.65 A 10.311 10.311 0 0 0 45.566 38.136 A 7.661 7.661 0 0 0 45.176 38.606 Q 45.022 38.782 44.912 38.98 A 0.855 0.855 0 0 0 44.854 39.108 A 0.92 0.92 0 0 0 44.803 39.419 Q 44.803 39.574 44.889 39.777 A 2.012 2.012 0 0 0 44.978 39.957 A 14.485 14.485 0 0 0 45.002 39.999 Q 45.083 40.145 45.159 40.274 A 8.657 8.657 0 0 0 45.308 40.518 A 14.284 14.284 0 0 0 45.664 41.029 Q 46.124 41.658 46.538 42.056 A 2.183 2.183 0 0 0 46.857 42.278 A 2.88 2.88 0 0 0 47.241 42.462 A 1.526 1.526 0 0 0 47.347 42.499 Q 47.626 42.586 48.046 42.614 A 6.488 6.488 0 0 0 48.472 42.627 A 11.679 11.679 0 0 0 52.339 41.967 A 14.243 14.243 0 0 0 55.833 40.144 A 15.881 15.881 0 0 0 57.755 38.544 Q 59.046 37.292 60.268 35.617 A 34.218 34.218 0 0 0 62.425 32.234 Q 64.468 28.63 65.896 24.873 A 62.978 62.978 0 0 0 67.154 21.25 A 46.933 46.933 0 0 0 68.072 17.897 Q 68.585 15.684 68.756 14.047 A 14.826 14.826 0 0 0 68.841 12.678 A 2.064 2.064 0 0 0 68.833 12.501 Q 68.819 12.339 68.779 12.203 A 0.971 0.971 0 0 0 68.621 11.887 Q 68.137 11.272 67.456 10.635 A 12.706 12.706 0 0 0 67.259 10.454 Q 66.953 10.18 66.593 9.89 A 22.959 22.959 0 0 0 65.786 9.273 A 1.108 1.108 0 0 0 65.694 9.204 A 0.845 0.845 0 0 0 65.215 9.053 Q 65.038 9.053 64.841 9.152 A 1.507 1.507 0 0 0 64.644 9.273 A 27.502 27.502 0 0 0 64.378 9.475 Q 63.987 9.775 63.647 10.061 A 15.968 15.968 0 0 0 62.996 10.635 A 15.106 15.106 0 0 0 62.434 11.188 A 11.913 11.913 0 0 0 61.809 11.887 A 0.906 0.906 0 0 0 61.687 12.104 Q 61.635 12.234 61.611 12.394 A 2.041 2.041 0 0 0 61.59 12.7 L 61.59 12.634 Q 61.59 14.107 61.282 16.007 A 45.47 45.47 0 0 1 60.491 19.83 Q 60.008 21.753 59.469 23.324 A 35.659 35.659 0 0 1 59.366 23.621 Q 58.888 24.976 58.491 25.73 L 58.382 25.73 A 7.417 7.417 0 0 1 58.078 25.438 Q 57.273 24.617 56.514 23.368 A 19.394 19.394 0 0 1 55.863 22.206 A 23.502 23.502 0 0 1 54.888 20.05 Q 54.163 18.215 53.745 16.282 A 19.868 19.868 0 0 1 53.508 14.976 A 16.27 16.27 0 0 1 53.328 12.612 L 53.328 12.7 A 2.036 2.036 0 0 0 53.32 12.52 Q 53.305 12.355 53.263 12.218 A 0.937 0.937 0 0 0 53.086 11.887 Q 52.603 11.272 51.911 10.635 A 12.821 12.821 0 0 0 51.628 10.383 Q 51.304 10.101 50.921 9.804 A 23.453 23.453 0 0 0 50.208 9.273 Q 49.9 9.053 49.615 9.053 Q 49.433 9.053 49.221 9.157 A 1.737 1.737 0 0 0 49.021 9.273 Q 47.854 10.124 47.021 10.933 A 10.758 10.758 0 0 0 46.143 11.887 Q 45.986 12.073 45.931 12.341 A 1.569 1.569 0 0 0 45.901 12.656 M 79.893 30.213 L 79.805 30.213 L 79.805 39.573 A 2.041 2.041 0 0 1 79.783 39.879 Q 79.759 40.039 79.707 40.169 A 0.906 0.906 0 0 1 79.585 40.386 A 10.54 10.54 0 0 1 78.773 41.32 Q 78.335 41.771 77.792 42.246 A 23.622 23.622 0 0 1 76.883 43.001 A 1.629 1.629 0 0 1 76.701 43.114 Q 76.501 43.22 76.333 43.22 A 0.721 0.721 0 0 1 76.066 43.166 Q 75.928 43.111 75.784 43.001 A 21.729 21.729 0 0 1 75.014 42.383 Q 74.67 42.093 74.379 41.819 A 12.112 12.112 0 0 1 74.191 41.638 A 12.496 12.496 0 0 1 73.529 40.938 A 9.718 9.718 0 0 1 73.081 40.386 Q 72.91 40.163 72.872 39.793 A 2.175 2.175 0 0 1 72.862 39.573 L 72.862 12.481 A 2.041 2.041 0 0 1 72.883 12.175 Q 72.907 12.014 72.959 11.885 A 0.906 0.906 0 0 1 73.081 11.668 A 10.011 10.011 0 0 1 73.66 10.969 A 12.867 12.867 0 0 1 74.191 10.415 A 13.78 13.78 0 0 1 74.815 9.841 Q 75.143 9.556 75.524 9.255 A 24.3 24.3 0 0 1 75.784 9.053 A 1.147 1.147 0 0 1 76.029 8.907 A 0.873 0.873 0 0 1 76.377 8.833 Q 76.663 8.833 76.97 9.053 A 21.303 21.303 0 0 1 77.778 9.718 Q 78.149 10.041 78.464 10.349 A 12.737 12.737 0 0 1 78.553 10.437 A 11.286 11.286 0 0 1 79.522 11.537 A 10.142 10.142 0 0 1 79.717 11.799 L 79.827 11.799 Q 80.164 11.383 80.824 10.804 A 17.98 17.98 0 0 1 80.97 10.679 A 4.764 4.764 0 0 1 81.637 10.206 Q 82.27 9.83 83.156 9.514 A 7.531 7.531 0 0 1 84.339 9.207 Q 84.952 9.095 85.672 9.047 A 17.628 17.628 0 0 1 86.858 9.009 A 11.76 11.76 0 0 1 89.148 9.22 Q 90.567 9.501 91.689 10.159 A 7.052 7.052 0 0 1 92.143 10.448 A 8.516 8.516 0 0 1 95.04 13.941 A 10.35 10.35 0 0 1 95.241 14.403 A 13.633 13.633 0 0 1 96.091 17.627 A 18.086 18.086 0 0 1 96.262 20.171 A 17.799 17.799 0 0 1 95.925 23.708 A 14.398 14.398 0 0 1 95.065 26.499 A 10.685 10.685 0 0 1 93.066 29.625 A 9.854 9.854 0 0 1 91.538 30.96 Q 89.209 32.608 85.76 32.608 A 12.842 12.842 0 0 1 84.561 32.555 Q 83.565 32.461 82.826 32.201 A 8.385 8.385 0 0 1 82.026 31.875 Q 81.624 31.684 81.299 31.468 A 4.264 4.264 0 0 1 80.98 31.234 A 11.985 11.985 0 0 1 80.512 30.836 Q 80.305 30.65 80.135 30.476 A 5.492 5.492 0 0 1 79.893 30.213 Z M 102.547 24.983 L 102.547 14.678 L 100.064 14.678 A 2.479 2.479 0 0 1 99.751 14.66 Q 99.339 14.607 99.152 14.403 A 0.782 0.782 0 0 1 99.003 14.156 Q 98.899 13.892 98.899 13.469 L 98.899 10.767 A 2.711 2.711 0 0 1 98.917 10.444 Q 98.966 10.035 99.152 9.833 Q 99.383 9.582 99.954 9.56 A 2.922 2.922 0 0 1 100.064 9.558 L 102.547 9.558 L 102.547 6.021 A 2.041 2.041 0 0 1 102.568 5.715 Q 102.592 5.554 102.644 5.425 A 0.906 0.906 0 0 1 102.766 5.208 A 10.54 10.54 0 0 1 103.579 4.273 Q 104.016 3.823 104.56 3.347 A 23.622 23.622 0 0 1 105.469 2.593 A 1.629 1.629 0 0 1 105.65 2.479 Q 105.85 2.373 106.018 2.373 Q 106.26 2.373 106.502 2.558 A 1.327 1.327 0 0 1 106.546 2.593 A 21.729 21.729 0 0 1 107.316 3.211 Q 107.659 3.5 107.951 3.774 A 12.112 12.112 0 0 1 108.139 3.955 A 12.496 12.496 0 0 1 108.8 4.655 A 9.718 9.718 0 0 1 109.248 5.208 Q 109.42 5.431 109.457 5.801 A 2.175 2.175 0 0 1 109.468 6.021 L 109.468 9.558 L 113.357 9.558 A 2.479 2.479 0 0 1 113.67 9.576 Q 114.082 9.629 114.269 9.833 A 0.782 0.782 0 0 1 114.418 10.08 Q 114.522 10.344 114.522 10.767 L 114.522 13.469 A 2.711 2.711 0 0 1 114.504 13.792 Q 114.455 14.202 114.269 14.403 Q 114.038 14.654 113.467 14.676 A 2.922 2.922 0 0 1 113.357 14.678 L 109.468 14.678 L 109.468 23.775 A 7.143 7.143 0 0 0 109.569 25.036 Q 109.976 27.29 112.017 27.29 Q 112.412 27.29 112.742 27.213 A 6.329 6.329 0 0 0 113.014 27.144 Q 113.177 27.098 113.313 27.048 A 3.671 3.671 0 0 1 113.487 26.987 Q 113.776 26.893 113.927 26.911 A 0.309 0.309 0 0 1 113.961 26.917 A 0.249 0.249 0 0 1 114.074 26.981 Q 114.191 27.091 114.293 27.375 A 2.595 2.595 0 0 1 114.302 27.4 L 115.576 30.806 A 1.126 1.126 0 0 1 115.615 30.935 Q 115.718 31.385 115.313 31.597 A 3.493 3.493 0 0 1 115.156 31.664 Q 114.762 31.825 113.796 32.153 A 86.187 86.187 0 0 1 113.72 32.179 Q 112.654 32.54 110.658 32.597 A 27.307 27.307 0 0 1 109.886 32.608 A 10.137 10.137 0 0 1 106.937 32.216 Q 103.696 31.23 102.847 27.757 A 11.719 11.719 0 0 1 102.547 24.983 Z M 126.389 32.236 A 16.823 16.823 0 0 0 130.034 32.608 Q 135.747 32.608 138.999 29.509 A 9.334 9.334 0 0 0 140.387 27.839 Q 141.453 26.202 141.909 24.038 A 17.148 17.148 0 0 0 142.251 20.501 A 18.905 18.905 0 0 0 142.239 19.817 Q 142.173 18 141.753 16.484 A 9.306 9.306 0 0 0 138.999 11.92 A 11.06 11.06 0 0 0 134.021 9.401 A 16.29 16.29 0 0 0 130.342 9.009 A 20.935 20.935 0 0 0 130.07 9.011 Q 128.038 9.037 126.308 9.46 A 11.392 11.392 0 0 0 121.388 11.964 Q 119.084 13.997 118.364 17.458 A 16.906 16.906 0 0 0 118.037 20.896 A 19.598 19.598 0 0 0 118.065 21.956 Q 118.165 23.804 118.623 25.333 A 9.341 9.341 0 0 0 121.267 29.663 Q 123.349 31.561 126.389 32.236 Z M 36.761 12.107 L 36.761 13.733 L 36.848 13.733 A 8.888 8.888 0 0 1 37.946 11.576 Q 39.614 9.238 42.588 9.165 A 7.869 7.869 0 0 1 42.781 9.163 Q 43.33 9.163 43.682 9.218 A 8.691 8.691 0 0 1 43.839 9.244 Q 44.055 9.281 44.156 9.313 A 0.708 0.708 0 0 1 44.165 9.317 Q 44.42 9.401 44.478 9.656 A 0.747 0.747 0 0 1 44.495 9.822 L 44.495 15.117 Q 44.495 15.798 43.704 15.491 Q 43.466 15.392 43.04 15.284 A 11.001 11.001 0 0 0 42.946 15.26 A 3.368 3.368 0 0 0 42.599 15.196 Q 42.177 15.139 41.573 15.139 A 4.938 4.938 0 0 0 39.97 15.387 A 4.054 4.054 0 0 0 38.035 16.798 A 5.724 5.724 0 0 0 37.084 18.739 Q 36.862 19.519 36.792 20.444 A 11.602 11.602 0 0 0 36.761 21.314 L 36.761 30.894 A 2.479 2.479 0 0 1 36.742 31.207 Q 36.69 31.618 36.486 31.806 A 0.782 0.782 0 0 1 36.239 31.955 Q 35.974 32.058 35.552 32.058 L 31.026 32.058 A 2.711 2.711 0 0 1 30.703 32.04 Q 30.294 31.991 30.092 31.806 Q 29.841 31.574 29.819 31.003 A 2.922 2.922 0 0 1 29.817 30.894 L 29.817 12.481 A 2.041 2.041 0 0 1 29.839 12.175 Q 29.863 12.014 29.915 11.885 A 0.906 0.906 0 0 1 30.037 11.668 A 10.011 10.011 0 0 1 30.615 10.969 A 12.867 12.867 0 0 1 31.147 10.415 A 13.78 13.78 0 0 1 31.77 9.841 Q 32.099 9.556 32.48 9.255 A 24.3 24.3 0 0 1 32.74 9.053 A 1.167 1.167 0 0 1 32.904 8.949 A 0.866 0.866 0 0 1 33.091 8.877 Q 33.229 8.843 33.34 8.835 A 0.881 0.881 0 0 1 33.399 8.833 Q 33.706 8.833 34.014 9.053 Q 35.838 10.481 36.563 11.492 A 0.989 0.989 0 0 1 36.76 12.069 A 1.225 1.225 0 0 1 36.761 12.107 Z M 130.254 27.29 A 6.161 6.161 0 0 0 131.712 27.128 A 3.944 3.944 0 0 0 133.902 25.785 A 4.279 4.279 0 0 0 134.577 24.567 Q 135.032 23.351 135.114 21.486 A 19.402 19.402 0 0 0 135.132 20.632 A 15.46 15.46 0 0 0 135.055 19.025 Q 134.874 17.3 134.27 16.274 A 3.469 3.469 0 0 0 133.891 15.744 Q 132.725 14.413 130.503 14.332 A 8.027 8.027 0 0 0 130.21 14.326 A 5.819 5.819 0 0 0 128.595 14.539 A 4.331 4.331 0 0 0 126.508 15.853 A 4.504 4.504 0 0 0 125.684 17.266 Q 125.193 18.57 125.159 20.518 A 16.779 16.779 0 0 0 125.157 20.808 A 15.87 15.87 0 0 0 125.237 22.466 Q 125.42 24.203 126.02 25.248 A 3.568 3.568 0 0 0 126.442 25.84 A 4.094 4.094 0 0 0 128.438 27.06 Q 129.096 27.247 129.884 27.282 A 8.336 8.336 0 0 0 130.254 27.29 Z M 79.805 17.249 L 79.805 22.017 Q 79.805 24.148 80.904 25.576 A 3.552 3.552 0 0 0 83.145 26.915 A 5.442 5.442 0 0 0 84.156 27.005 A 5.423 5.423 0 0 0 85.755 26.781 A 4.149 4.149 0 0 0 87.836 25.346 Q 88.843 24.068 89.074 21.912 A 12.822 12.822 0 0 0 89.143 20.545 A 10.538 10.538 0 0 0 88.934 18.342 Q 88.133 14.612 84.265 14.612 A 8.071 8.071 0 0 0 83.189 14.679 Q 82.635 14.754 82.187 14.912 A 3.045 3.045 0 0 0 81.211 15.458 A 6.362 6.362 0 0 0 80.479 16.189 Q 80.046 16.702 79.805 17.249 Z M 68.841 12.634 L 68.841 12.7 L 68.841 12.678 L 68.841 12.634 Z" vector-effect="non-scaling-stroke"/></g></svg>